solid OpenSCAD_Model
  facet normal -1 0 0
    outer loop
      vertex 0 16 3
      vertex 0 16 0
      vertex 0 6 3
    endloop
  endfacet
  facet normal -1 0 0
    outer loop
      vertex 0 0 0
      vertex 0 0 15.6874
      vertex 0 6 3
    endloop
  endfacet
  facet normal -1 0 0
    outer loop
      vertex 0 0 0
      vertex 0 6 3
      vertex 0 16 0
    endloop
  endfacet
  facet normal -1 0 0
    outer loop
      vertex 0 6 3
      vertex 0 0 15.6874
      vertex 0 6 15.6874
    endloop
  endfacet
  facet normal 0 -1 0
    outer loop
      vertex 0 0 15.6874
      vertex 0 0 0
      vertex 6 0 0
    endloop
  endfacet
  facet normal 0 -1 0
    outer loop
      vertex 6 0 15.6874
      vertex 0 0 15.6874
      vertex 6 0 0
    endloop
  endfacet
  facet normal 0 0 -1
    outer loop
      vertex 6 6 0
      vertex 6 0 0
      vertex 3 6 0
    endloop
  endfacet
  facet normal 0 0 -1
    outer loop
      vertex 3 14 0
      vertex 0 17 0
      vertex 10 17 0
    endloop
  endfacet
  facet normal 0 0 -1
    outer loop
      vertex 3 6 0
      vertex 0 17 0
      vertex 3 14 0
    endloop
  endfacet
  facet normal 0 0 -1
    outer loop
      vertex 3 14 0
      vertex 10 17 0
      vertex 10 14 0
    endloop
  endfacet
  facet normal 0 0 -1
    outer loop
      vertex 3 6 0
      vertex 0 16 0
      vertex 2.22045e-16 16 0
    endloop
  endfacet
  facet normal 0 0 -1
    outer loop
      vertex 0 0 0
      vertex 0 16 0
      vertex 3 6 0
    endloop
  endfacet
  facet normal 0 0 -1
    outer loop
      vertex 0 0 0
      vertex 3 6 0
      vertex 6 0 0
    endloop
  endfacet
  facet normal 0 0 -1
    outer loop
      vertex 3 6 0
      vertex 2.22045e-16 16 0
      vertex 0 17 0
    endloop
  endfacet
  facet normal 0 1 0
    outer loop
      vertex 0 16 0
      vertex 0 16 3
      vertex 2.22045e-16 16 0
    endloop
  endfacet
  facet normal 0 1 0
    outer loop
      vertex 2.22045e-16 16 0
      vertex 0 16 3
      vertex 2.22045e-16 16 3
    endloop
  endfacet
  facet normal 0 0 1
    outer loop
      vertex 0 16 3
      vertex 0 6 3
      vertex 3 6 3
    endloop
  endfacet
  facet normal 0 0 1
    outer loop
      vertex 10 14 3
      vertex 0 16 3
      vertex 3 14 3
    endloop
  endfacet
  facet normal 0 0 1
    outer loop
      vertex 3 14 3
      vertex 0 16 3
      vertex 3 6 3
    endloop
  endfacet
  facet normal 0 0 1
    outer loop
      vertex 2.22045e-16 16 3
      vertex 0 16 3
      vertex 10 14 3
    endloop
  endfacet
  facet normal 0 0 1
    outer loop
      vertex 10 17 3
      vertex 2.22045e-16 16 3
      vertex 10 14 3
    endloop
  endfacet
  facet normal 0 0 1
    outer loop
      vertex 0 17 3
      vertex 2.22045e-16 16 3
      vertex 10 17 3
    endloop
  endfacet
  facet normal 0 1 0
    outer loop
      vertex 0 6 3
      vertex 0 6 15.6874
      vertex 3 6 3
    endloop
  endfacet
  facet normal 0 1 0
    outer loop
      vertex 3 6 3
      vertex 0 6 15.6874
      vertex 6 6 15.6874
    endloop
  endfacet
  facet normal 0 1 0
    outer loop
      vertex 3 6 3
      vertex 6 6 15.6874
      vertex 6 6 0
    endloop
  endfacet
  facet normal 0 1 0
    outer loop
      vertex 3 6 3
      vertex 6 6 0
      vertex 3 6 0
    endloop
  endfacet
  facet normal 0 0 1
    outer loop
      vertex 0 6 15.6874
      vertex 0 0 15.6874
      vertex 6 0 15.6874
    endloop
  endfacet
  facet normal 0 0 1
    outer loop
      vertex 6 6 15.6874
      vertex 0 6 15.6874
      vertex 6 0 15.6874
    endloop
  endfacet
  facet normal 1 0 0
    outer loop
      vertex 6 0 15.6874
      vertex 6 0 0
      vertex 6 6 0
    endloop
  endfacet
  facet normal 1 0 0
    outer loop
      vertex 6 6 15.6874
      vertex 6 0 15.6874
      vertex 6 6 0
    endloop
  endfacet
  facet normal 1 0 0
    outer loop
      vertex 3 6 3
      vertex 3 6 0
      vertex 3 14 0
    endloop
  endfacet
  facet normal 1 0 0
    outer loop
      vertex 3 14 3
      vertex 3 6 3
      vertex 3 14 0
    endloop
  endfacet
  facet normal 2.22045e-16 -1 0
    outer loop
      vertex 3 14 3
      vertex 3 14 0
      vertex 10 14 0
    endloop
  endfacet
  facet normal 2.22045e-16 -1 0
    outer loop
      vertex 10 14 3
      vertex 3 14 3
      vertex 10 14 0
    endloop
  endfacet
  facet normal -1 6.01616e-49 -1.22465e-16
    outer loop
      vertex 10 17 14.1731
      vertex 10 17 3
      vertex 10 11 14.1731
    endloop
  endfacet
  facet normal -1 6.01616e-49 -1.22465e-16
    outer loop
      vertex 10 11 14.1731
      vertex 10 17 3
      vertex 10 14 3
    endloop
  endfacet
  facet normal -1 6.01616e-49 -1.22465e-16
    outer loop
      vertex 10 11 14.1731
      vertex 10 14 3
      vertex 10 14 0
    endloop
  endfacet
  facet normal -1 6.01616e-49 -1.22465e-16
    outer loop
      vertex 10 14 0
      vertex 10 17 0
      vertex 10 17 -7.34788e-16
    endloop
  endfacet
  facet normal -1 6.01616e-49 -1.22465e-16
    outer loop
      vertex 10 14 0
      vertex 10 17 -7.34788e-16
      vertex 10 11 -1.46958e-15
    endloop
  endfacet
  facet normal -1 6.01616e-49 -1.22465e-16
    outer loop
      vertex 10 14 0
      vertex 10 11 -1.46958e-15
      vertex 10 11 14.1731
    endloop
  endfacet
  facet normal -1.49976e-32 1 1.22465e-16
    outer loop
      vertex 10 17 14.1731
      vertex 16 17 14.1731
      vertex 10 17 3
    endloop
  endfacet
  facet normal -1.49976e-32 1 1.22465e-16
    outer loop
      vertex 10 17 3
      vertex 16 17 14.1731
      vertex 16 17 0
    endloop
  endfacet
  facet normal -1.49976e-32 1 1.22465e-16
    outer loop
      vertex 10 17 0
      vertex 16 17 0
      vertex 10 17 -7.34788e-16
    endloop
  endfacet
  facet normal -1.49976e-32 1 1.22465e-16
    outer loop
      vertex 10 17 3
      vertex 16 17 0
      vertex 10 17 0
    endloop
  endfacet
  facet normal -2.22045e-16 1 0
    outer loop
      vertex 0 17 0
      vertex 0 17 3
      vertex 10 17 0
    endloop
  endfacet
  facet normal -2.22045e-16 1 0
    outer loop
      vertex 10 17 0
      vertex 0 17 3
      vertex 10 17 3
    endloop
  endfacet
  facet normal -1 -2.22045e-16 0
    outer loop
      vertex 0 17 0
      vertex 2.22045e-16 16 0
      vertex 0 17 3
    endloop
  endfacet
  facet normal -1 -2.22045e-16 0
    outer loop
      vertex 0 17 3
      vertex 2.22045e-16 16 0
      vertex 2.22045e-16 16 3
    endloop
  endfacet
  facet normal 1.49976e-32 -1 -1.22465e-16
    outer loop
      vertex 10 11 1.5
      vertex 10 11 14.1731
      vertex 10 11 -1.46958e-15
    endloop
  endfacet
  facet normal 1.49976e-32 -1 -1.22465e-16
    outer loop
      vertex 10 11 3
      vertex 13 11 3
      vertex 16 11 14.1731
    endloop
  endfacet
  facet normal 1.49976e-32 -1 -1.22465e-16
    outer loop
      vertex 10 11 3
      vertex 10 11 14.1731
      vertex 10 11 1.5
    endloop
  endfacet
  facet normal 1.49976e-32 -1 -1.22465e-16
    outer loop
      vertex 16 11 14.1731
      vertex 10 11 14.1731
      vertex 10 11 3
    endloop
  endfacet
  facet normal 1.49976e-32 -1 -1.22465e-16
    outer loop
      vertex 16 11 -7.34788e-16
      vertex 16 11 14.1731
      vertex 13 11 3
    endloop
  endfacet
  facet normal 1.49976e-32 -1 -1.22465e-16
    outer loop
      vertex 16 11 -7.34788e-16
      vertex 13 11 1.5
      vertex 10 11 -1.46958e-15
    endloop
  endfacet
  facet normal 1.49976e-32 -1 -1.22465e-16
    outer loop
      vertex 16 11 -7.34788e-16
      vertex 13 11 3
      vertex 13 11 1.5
    endloop
  endfacet
  facet normal 1.49976e-32 -1 -1.22465e-16
    outer loop
      vertex 13 11 1.5
      vertex 10 11 1.5
      vertex 10 11 -1.46958e-15
    endloop
  endfacet
  facet normal -1.22465e-16 -1.22465e-16 1
    outer loop
      vertex 16 17 14.1731
      vertex 10 17 14.1731
      vertex 10 11 14.1731
    endloop
  endfacet
  facet normal -1.22465e-16 -1.22465e-16 1
    outer loop
      vertex 16 11 14.1731
      vertex 16 17 14.1731
      vertex 10 11 14.1731
    endloop
  endfacet
  facet normal 1.22465e-16 1.22465e-16 -1
    outer loop
      vertex 10 17 -7.34788e-16
      vertex 16 17 0
      vertex 10 11 -1.46958e-15
    endloop
  endfacet
  facet normal 1.22465e-16 1.22465e-16 -1
    outer loop
      vertex 10 11 -1.46958e-15
      vertex 16 17 0
      vertex 16 11 -7.34788e-16
    endloop
  endfacet
  facet normal 1 -6.01616e-49 1.22465e-16
    outer loop
      vertex 16 17 0
      vertex 16 17 14.1731
      vertex 16 11 14.1731
    endloop
  endfacet
  facet normal 1 -6.01616e-49 1.22465e-16
    outer loop
      vertex 16 11 -7.34788e-16
      vertex 16 17 0
      vertex 16 11 14.1731
    endloop
  endfacet
  facet normal -1 0 0
    outer loop
      vertex 10 1 1.5
      vertex 10 1 3
      vertex 10 1 1.22465e-15
    endloop
  endfacet
  facet normal -1 0 0
    outer loop
      vertex 10 1 1.22465e-15
      vertex 10 1 3
      vertex 10 11 3
    endloop
  endfacet
  facet normal -1 0 0
    outer loop
      vertex 10 1 1.22465e-15
      vertex 10 11 3
      vertex 10 11 1.5
    endloop
  endfacet
  facet normal -1 0 0
    outer loop
      vertex 10 1 1.22465e-15
      vertex 10 11 1.5
      vertex 10 11 0
    endloop
  endfacet
  facet normal 0 1 -1.22465e-16
    outer loop
      vertex 10 11 0
      vertex 10 11 1.5
      vertex 13 11 0
    endloop
  endfacet
  facet normal 0 1 -1.22465e-16
    outer loop
      vertex 13 11 0
      vertex 10 11 1.5
      vertex 13 11 1.5
    endloop
  endfacet
  facet normal 1 0 0
    outer loop
      vertex 13 1 3
      vertex 13 1 1.5
      vertex 13 1 1.22465e-15
    endloop
  endfacet
  facet normal 1 0 0
    outer loop
      vertex 13 11 1.5
      vertex 13 1 3
      vertex 13 11 0
    endloop
  endfacet
  facet normal 1 0 0
    outer loop
      vertex 13 11 0
      vertex 13 1 3
      vertex 13 1 1.22465e-15
    endloop
  endfacet
  facet normal 1 0 0
    outer loop
      vertex 13 11 3
      vertex 13 1 3
      vertex 13 11 1.5
    endloop
  endfacet
  facet normal 0 1.22465e-16 1
    outer loop
      vertex 10 11 3
      vertex 10 1 3
      vertex 13 1 3
    endloop
  endfacet
  facet normal 0 1.22465e-16 1
    outer loop
      vertex 13 11 3
      vertex 10 11 3
      vertex 13 1 3
    endloop
  endfacet
  facet normal -1.49976e-32 1 1.22465e-16
    outer loop
      vertex 13 1 1.22465e-15
      vertex 16 1 13.9423
      vertex 16 1 0
    endloop
  endfacet
  facet normal -1.49976e-32 1 1.22465e-16
    outer loop
      vertex 10 1 13.9423
      vertex 16 1 13.9423
      vertex 10 1 1.5
    endloop
  endfacet
  facet normal -1.49976e-32 1 1.22465e-16
    outer loop
      vertex 10 1 13.9423
      vertex 10 1 1.22465e-15
      vertex 10 1 -7.34788e-16
    endloop
  endfacet
  facet normal -1.49976e-32 1 1.22465e-16
    outer loop
      vertex 13 1 1.22465e-15
      vertex 10 1 -7.34788e-16
      vertex 10 1 1.22465e-15
    endloop
  endfacet
  facet normal -1.49976e-32 1 1.22465e-16
    outer loop
      vertex 10 1 1.5
      vertex 10 1 1.22465e-15
      vertex 10 1 13.9423
    endloop
  endfacet
  facet normal -1.49976e-32 1 1.22465e-16
    outer loop
      vertex 13 1 1.5
      vertex 16 1 13.9423
      vertex 13 1 1.22465e-15
    endloop
  endfacet
  facet normal -1.49976e-32 1 1.22465e-16
    outer loop
      vertex 10 1 -7.34788e-16
      vertex 13 1 1.22465e-15
      vertex 16 1 0
    endloop
  endfacet
  facet normal -1.49976e-32 1 1.22465e-16
    outer loop
      vertex 10 1 1.5
      vertex 16 1 13.9423
      vertex 13 1 1.5
    endloop
  endfacet
  facet normal 0 -1.22465e-16 -1
    outer loop
      vertex 10 1 1.22465e-15
      vertex 10 11 0
      vertex 13 1 1.22465e-15
    endloop
  endfacet
  facet normal 0 -1.22465e-16 -1
    outer loop
      vertex 13 1 1.22465e-15
      vertex 10 11 0
      vertex 13 11 0
    endloop
  endfacet
  facet normal 0 -1 1.22465e-16
    outer loop
      vertex 10 1 3
      vertex 10 1 1.5
      vertex 13 1 1.5
    endloop
  endfacet
  facet normal 0 -1 1.22465e-16
    outer loop
      vertex 13 1 3
      vertex 10 1 3
      vertex 13 1 1.5
    endloop
  endfacet
  facet normal -1 6.01616e-49 -1.22465e-16
    outer loop
      vertex 10 1 13.9423
      vertex 10 1 -7.34788e-16
      vertex 10 -5 13.9423
    endloop
  endfacet
  facet normal -1 6.01616e-49 -1.22465e-16
    outer loop
      vertex 10 -5 13.9423
      vertex 10 1 -7.34788e-16
      vertex 10 -5 -1.46958e-15
    endloop
  endfacet
  facet normal 1.22465e-16 1.22465e-16 -1
    outer loop
      vertex 10 1 -7.34788e-16
      vertex 16 1 0
      vertex 10 -5 -1.46958e-15
    endloop
  endfacet
  facet normal 1.22465e-16 1.22465e-16 -1
    outer loop
      vertex 10 -5 -1.46958e-15
      vertex 16 1 0
      vertex 16 -5 -7.34788e-16
    endloop
  endfacet
  facet normal 1 -6.01616e-49 1.22465e-16
    outer loop
      vertex 16 1 0
      vertex 16 1 13.9423
      vertex 16 -5 13.9423
    endloop
  endfacet
  facet normal 1 -6.01616e-49 1.22465e-16
    outer loop
      vertex 16 -5 -7.34788e-16
      vertex 16 1 0
      vertex 16 -5 13.9423
    endloop
  endfacet
  facet normal -1.22465e-16 -1.22465e-16 1
    outer loop
      vertex 16 1 13.9423
      vertex 10 1 13.9423
      vertex 10 -5 13.9423
    endloop
  endfacet
  facet normal -1.22465e-16 -1.22465e-16 1
    outer loop
      vertex 16 -5 13.9423
      vertex 16 1 13.9423
      vertex 10 -5 13.9423
    endloop
  endfacet
  facet normal 1.49976e-32 -1 -1.22465e-16
    outer loop
      vertex 10 -5 1.5
      vertex 10 -5 13.9423
      vertex 10 -5 -1.46958e-15
    endloop
  endfacet
  facet normal 1.49976e-32 -1 -1.22465e-16
    outer loop
      vertex 10 -5 3
      vertex 13 -5 3
      vertex 16 -5 13.9423
    endloop
  endfacet
  facet normal 1.49976e-32 -1 -1.22465e-16
    outer loop
      vertex 10 -5 3
      vertex 10 -5 13.9423
      vertex 10 -5 1.5
    endloop
  endfacet
  facet normal 1.49976e-32 -1 -1.22465e-16
    outer loop
      vertex 16 -5 13.9423
      vertex 10 -5 13.9423
      vertex 10 -5 3
    endloop
  endfacet
  facet normal 1.49976e-32 -1 -1.22465e-16
    outer loop
      vertex 16 -5 -7.34788e-16
      vertex 16 -5 13.9423
      vertex 13 -5 3
    endloop
  endfacet
  facet normal 1.49976e-32 -1 -1.22465e-16
    outer loop
      vertex 16 -5 -7.34788e-16
      vertex 13 -5 1.5
      vertex 10 -5 -1.46958e-15
    endloop
  endfacet
  facet normal 1.49976e-32 -1 -1.22465e-16
    outer loop
      vertex 16 -5 -7.34788e-16
      vertex 13 -5 3
      vertex 13 -5 1.5
    endloop
  endfacet
  facet normal 1.49976e-32 -1 -1.22465e-16
    outer loop
      vertex 13 -5 1.5
      vertex 10 -5 1.5
      vertex 10 -5 -1.46958e-15
    endloop
  endfacet
  facet normal -1 0 0
    outer loop
      vertex 10 -15 1.22465e-15
      vertex 10 -15 3
      vertex 10 -14 1.10218e-15
    endloop
  endfacet
  facet normal -1 0 0
    outer loop
      vertex 10 -14 1.10218e-15
      vertex 10 -15 3
      vertex 10 -5 3
    endloop
  endfacet
  facet normal -1 0 0
    outer loop
      vertex 10 -14 1.10218e-15
      vertex 10 -5 3
      vertex 10 -5 1.5
    endloop
  endfacet
  facet normal -1 0 0
    outer loop
      vertex 10 -14 1.10218e-15
      vertex 10 -5 1.5
      vertex 10 -5 0
    endloop
  endfacet
  facet normal 0 1 -1.22465e-16
    outer loop
      vertex 10 -5 0
      vertex 10 -5 1.5
      vertex 13 -5 0
    endloop
  endfacet
  facet normal 0 1 -1.22465e-16
    outer loop
      vertex 13 -5 0
      vertex 10 -5 1.5
      vertex 13 -5 1.5
    endloop
  endfacet
  facet normal 1 0 0
    outer loop
      vertex 13 -5 3
      vertex 13 -15 3
      vertex 13 -14 3
    endloop
  endfacet
  facet normal 1 0 0
    outer loop
      vertex 13 -14 1.10218e-15
      vertex 13 -5 0
      vertex 13 -14 3
    endloop
  endfacet
  facet normal 1 0 0
    outer loop
      vertex 13 -5 0
      vertex 13 -5 1.5
      vertex 13 -14 3
    endloop
  endfacet
  facet normal 1 0 0
    outer loop
      vertex 13 -5 1.5
      vertex 13 -5 3
      vertex 13 -14 3
    endloop
  endfacet
  facet normal 0 1.22465e-16 1
    outer loop
      vertex 10 -5 3
      vertex 10 -15 3
      vertex 13 -15 3
    endloop
  endfacet
  facet normal 0 1.22465e-16 1
    outer loop
      vertex 13 -5 3
      vertex 10 -5 3
      vertex 13 -15 3
    endloop
  endfacet
  facet normal -1 -2.22045e-16 0
    outer loop
      vertex 10 -14 0
      vertex 10 -17 0
      vertex 10 -14 1.10218e-15
    endloop
  endfacet
  facet normal -1 -2.22045e-16 0
    outer loop
      vertex 10 -15 1.22465e-15
      vertex 10 -17 0
      vertex 10 -17 3
    endloop
  endfacet
  facet normal -1 -2.22045e-16 0
    outer loop
      vertex 10 -14 1.10218e-15
      vertex 10 -17 0
      vertex 10 -15 1.22465e-15
    endloop
  endfacet
  facet normal -1 -2.22045e-16 0
    outer loop
      vertex 10 -15 1.22465e-15
      vertex 10 -17 3
      vertex 10 -15 3
    endloop
  endfacet
  facet normal -2.22045e-16 1 0
    outer loop
      vertex 10 -14 0
      vertex 10 -14 1.10218e-15
      vertex 20 -14 0
    endloop
  endfacet
  facet normal -2.22045e-16 1 0
    outer loop
      vertex 20 -14 0
      vertex 10 -14 1.10218e-15
      vertex 13 -14 1.10218e-15
    endloop
  endfacet
  facet normal -2.22045e-16 1 0
    outer loop
      vertex 20 -14 0
      vertex 13 -14 1.10218e-15
      vertex 13 -14 3
    endloop
  endfacet
  facet normal -2.22045e-16 1 0
    outer loop
      vertex 20 -14 0
      vertex 13 -14 3
      vertex 20 -14 3
    endloop
  endfacet
  facet normal 0 -1.22465e-16 -1
    outer loop
      vertex 10 -14 1.10218e-15
      vertex 10 -5 0
      vertex 13 -14 1.10218e-15
    endloop
  endfacet
  facet normal 0 -1.22465e-16 -1
    outer loop
      vertex 13 -14 1.10218e-15
      vertex 10 -5 0
      vertex 13 -5 0
    endloop
  endfacet
  facet normal 0 0 1
    outer loop
      vertex 13 -15 3
      vertex 10 -15 3
      vertex 10 -17 3
    endloop
  endfacet
  facet normal 0 0 1
    outer loop
      vertex 20 -14 3
      vertex 13 -15 3
      vertex 20 -17 3
    endloop
  endfacet
  facet normal 0 0 1
    outer loop
      vertex 20 -17 3
      vertex 13 -15 3
      vertex 10 -17 3
    endloop
  endfacet
  facet normal 0 0 1
    outer loop
      vertex 13 -14 3
      vertex 13 -15 3
      vertex 20 -14 3
    endloop
  endfacet
  facet normal 2.22045e-16 -1 0
    outer loop
      vertex 10 -17 3
      vertex 10 -17 0
      vertex 20 -17 0
    endloop
  endfacet
  facet normal 2.22045e-16 -1 0
    outer loop
      vertex 20 -17 3
      vertex 10 -17 3
      vertex 20 -17 0
    endloop
  endfacet
  facet normal 0 0 -1
    outer loop
      vertex 10 -14 0
      vertex 20 -14 0
      vertex 10 -17 0
    endloop
  endfacet
  facet normal 0 0 -1
    outer loop
      vertex 30 24.6881 0
      vertex 20 23.6881 0
      vertex 20 24.6881 0
    endloop
  endfacet
  facet normal 0 0 -1
    outer loop
      vertex 23 21.6881 0
      vertex 20 23.6881 0
      vertex 30 24.6881 0
    endloop
  endfacet
  facet normal 0 0 -1
    outer loop
      vertex 23 -11 0
      vertex 20 -14 0
      vertex 23 -1 0
    endloop
  endfacet
  facet normal 0 0 -1
    outer loop
      vertex 20 -14 0
      vertex 20 23.6881 0
      vertex 23 21.6881 0
    endloop
  endfacet
  facet normal 0 0 -1
    outer loop
      vertex 20 -14 0
      vertex 23 21.6881 0
      vertex 23 13.6881 0
    endloop
  endfacet
  facet normal 0 0 -1
    outer loop
      vertex 26 -1 0
      vertex 23 -1 0
      vertex 26 13.6881 0
    endloop
  endfacet
  facet normal 0 0 -1
    outer loop
      vertex 20 -14 0
      vertex 23 13.6881 0
      vertex 26 13.6881 0
    endloop
  endfacet
  facet normal 0 0 -1
    outer loop
      vertex 20 -14 0
      vertex 26 13.6881 0
      vertex 23 -1 0
    endloop
  endfacet
  facet normal 0 0 -1
    outer loop
      vertex 26 -17 0
      vertex 20 -14 0
      vertex 26 -11 0
    endloop
  endfacet
  facet normal 0 0 -1
    outer loop
      vertex 20 -14 0
      vertex 23 -11 0
      vertex 26 -11 0
    endloop
  endfacet
  facet normal 0 0 -1
    outer loop
      vertex 20 -17 0
      vertex 20 -14 0
      vertex 26 -17 0
    endloop
  endfacet
  facet normal 0 0 -1
    outer loop
      vertex 10 -17 0
      vertex 20 -14 0
      vertex 20 -17 0
    endloop
  endfacet
  facet normal 0 0 -1
    outer loop
      vertex 23 21.6881 0
      vertex 30 24.6881 0
      vertex 30 21.6881 0
    endloop
  endfacet
  facet normal -1 0 0
    outer loop
      vertex 20 -17 3
      vertex 20 -17 14.8216
      vertex 20 -11 14.8216
    endloop
  endfacet
  facet normal -1 0 0
    outer loop
      vertex 20 -14 3
      vertex 20 -11 14.8216
      vertex 20 -11 3
    endloop
  endfacet
  facet normal -1 0 0
    outer loop
      vertex 20 -1 3
      vertex 20 -1 6
      vertex 20 13.6881 6
    endloop
  endfacet
  facet normal -1 0 0
    outer loop
      vertex 20 -1 3
      vertex 20 13.6881 6
      vertex 20 13.6881 3
    endloop
  endfacet
  facet normal -1 0 0
    outer loop
      vertex 20 -14 0
      vertex 20 23.6881 3
      vertex 20 23.6881 0
    endloop
  endfacet
  facet normal -1 0 0
    outer loop
      vertex 20 -17 3
      vertex 20 -11 14.8216
      vertex 20 -14 3
    endloop
  endfacet
  facet normal -1 0 0
    outer loop
      vertex 20 -17 0
      vertex 20 -17 14.8216
      vertex 20 -17 3
    endloop
  endfacet
  facet normal -1 0 0
    outer loop
      vertex 20 13.6881 3
      vertex 20 23.6881 3
      vertex 20 -14 0
    endloop
  endfacet
  facet normal -1 0 0
    outer loop
      vertex 20 -1 3
      vertex 20 13.6881 3
      vertex 20 -14 0
    endloop
  endfacet
  facet normal -1 0 0
    outer loop
      vertex 20 -11 3
      vertex 20 -1 3
      vertex 20 -14 0
    endloop
  endfacet
  facet normal -1 0 0
    outer loop
      vertex 20 -14 3
      vertex 20 -11 3
      vertex 20 -14 0
    endloop
  endfacet
  facet normal 0 -1 0
    outer loop
      vertex 20 -17 14.8216
      vertex 20 -17 0
      vertex 26 -17 0
    endloop
  endfacet
  facet normal 0 -1 0
    outer loop
      vertex 26 -17 14.8216
      vertex 20 -17 14.8216
      vertex 26 -17 0
    endloop
  endfacet
  facet normal 1 0 0
    outer loop
      vertex 26 -17 14.8216
      vertex 26 -17 0
      vertex 26 -11 0
    endloop
  endfacet
  facet normal 1 0 0
    outer loop
      vertex 26 -11 14.8216
      vertex 26 -17 14.8216
      vertex 26 -11 0
    endloop
  endfacet
  facet normal 0 1 0
    outer loop
      vertex 20 -11 3
      vertex 20 -11 14.8216
      vertex 23 -11 3
    endloop
  endfacet
  facet normal 0 1 0
    outer loop
      vertex 23 -11 3
      vertex 20 -11 14.8216
      vertex 26 -11 14.8216
    endloop
  endfacet
  facet normal 0 1 0
    outer loop
      vertex 23 -11 3
      vertex 26 -11 14.8216
      vertex 26 -11 0
    endloop
  endfacet
  facet normal 0 1 0
    outer loop
      vertex 23 -11 3
      vertex 26 -11 0
      vertex 23 -11 0
    endloop
  endfacet
  facet normal 1 0 0
    outer loop
      vertex 23 -11 3
      vertex 23 -11 0
      vertex 23 -1 0
    endloop
  endfacet
  facet normal 1 0 0
    outer loop
      vertex 23 -1 3
      vertex 23 -11 3
      vertex 23 -1 0
    endloop
  endfacet
  facet normal 0 -1 0
    outer loop
      vertex 23 -1 3
      vertex 23 -1 0
      vertex 26 -1 0
    endloop
  endfacet
  facet normal 0 -1 0
    outer loop
      vertex 20 -1 6
      vertex 23 -1 3
      vertex 26 -1 6
    endloop
  endfacet
  facet normal 0 -1 0
    outer loop
      vertex 26 -1 6
      vertex 23 -1 3
      vertex 26 -1 0
    endloop
  endfacet
  facet normal 0 -1 0
    outer loop
      vertex 20 -1 3
      vertex 23 -1 3
      vertex 20 -1 6
    endloop
  endfacet
  facet normal 1 0 0
    outer loop
      vertex 26 -1 6
      vertex 26 -1 0
      vertex 26 13.6881 0
    endloop
  endfacet
  facet normal 1 0 0
    outer loop
      vertex 26 13.6881 6
      vertex 26 -1 6
      vertex 26 13.6881 0
    endloop
  endfacet
  facet normal 0 1 0
    outer loop
      vertex 20 13.6881 3
      vertex 20 13.6881 6
      vertex 23 13.6881 3
    endloop
  endfacet
  facet normal 0 1 0
    outer loop
      vertex 23 13.6881 3
      vertex 20 13.6881 6
      vertex 26 13.6881 6
    endloop
  endfacet
  facet normal 0 1 0
    outer loop
      vertex 23 13.6881 3
      vertex 26 13.6881 6
      vertex 26 13.6881 0
    endloop
  endfacet
  facet normal 0 1 0
    outer loop
      vertex 23 13.6881 3
      vertex 26 13.6881 0
      vertex 23 13.6881 0
    endloop
  endfacet
  facet normal 1 0 0
    outer loop
      vertex 23 13.6881 3
      vertex 23 13.6881 0
      vertex 23 21.6881 0
    endloop
  endfacet
  facet normal 1 0 0
    outer loop
      vertex 23 21.6881 3
      vertex 23 13.6881 3
      vertex 23 21.6881 0
    endloop
  endfacet
  facet normal 2.22045e-16 -1 0
    outer loop
      vertex 23 21.6881 3
      vertex 23 21.6881 0
      vertex 30 21.6881 0
    endloop
  endfacet
  facet normal 2.22045e-16 -1 0
    outer loop
      vertex 30 21.6881 3.67394e-16
      vertex 23 21.6881 3
      vertex 30 21.6881 0
    endloop
  endfacet
  facet normal 2.22045e-16 -1 0
    outer loop
      vertex 30 21.6881 3.67394e-16
      vertex 30 21.6881 3
      vertex 23 21.6881 3
    endloop
  endfacet
  facet normal 1 2.22045e-16 0
    outer loop
      vertex 30 21.6881 0
      vertex 30 24.6881 0
      vertex 30 21.6881 3.67394e-16
    endloop
  endfacet
  facet normal 0 -1.22465e-16 -1
    outer loop
      vertex 30 -11.0533 4.37706e-15
      vertex 30 21.6881 3.67394e-16
      vertex 36 -11.0533 4.37706e-15
    endloop
  endfacet
  facet normal 0 -1.22465e-16 -1
    outer loop
      vertex 36 -11.0533 4.37706e-15
      vertex 30 21.6881 3.67394e-16
      vertex 30 24.6881 0
    endloop
  endfacet
  facet normal 0 -1.22465e-16 -1
    outer loop
      vertex 36 -11.0533 4.37706e-15
      vertex 30 24.6881 0
      vertex 36 24.6881 0
    endloop
  endfacet
  facet normal 0 1 -1.22465e-16
    outer loop
      vertex 30 24.6881 3
      vertex 30 24.6881 6
      vertex 36 24.6881 6
    endloop
  endfacet
  facet normal 0 1 -1.22465e-16
    outer loop
      vertex 30 24.6881 3
      vertex 36 24.6881 6
      vertex 36 24.6881 0
    endloop
  endfacet
  facet normal 0 1 -1.22465e-16
    outer loop
      vertex 30 24.6881 3
      vertex 36 24.6881 0
      vertex 30 24.6881 0
    endloop
  endfacet
  facet normal -2.22045e-16 1 0
    outer loop
      vertex 20 24.6881 0
      vertex 20 24.6881 3
      vertex 30 24.6881 0
    endloop
  endfacet
  facet normal -2.22045e-16 1 0
    outer loop
      vertex 30 24.6881 0
      vertex 20 24.6881 3
      vertex 30 24.6881 3
    endloop
  endfacet
  facet normal -1 -2.22045e-16 0
    outer loop
      vertex 20 24.6881 0
      vertex 20 23.6881 0
      vertex 20 24.6881 3
    endloop
  endfacet
  facet normal -1 -2.22045e-16 0
    outer loop
      vertex 20 24.6881 3
      vertex 20 23.6881 0
      vertex 20 23.6881 3
    endloop
  endfacet
  facet normal 0 0 1
    outer loop
      vertex 20 23.6881 3
      vertex 20 13.6881 3
      vertex 23 13.6881 3
    endloop
  endfacet
  facet normal 0 0 1
    outer loop
      vertex 30 21.6881 3
      vertex 20 23.6881 3
      vertex 23 21.6881 3
    endloop
  endfacet
  facet normal 0 0 1
    outer loop
      vertex 23 21.6881 3
      vertex 20 23.6881 3
      vertex 23 13.6881 3
    endloop
  endfacet
  facet normal 0 0 1
    outer loop
      vertex 30 24.6881 3
      vertex 20 23.6881 3
      vertex 30 21.6881 3
    endloop
  endfacet
  facet normal 0 0 1
    outer loop
      vertex 20 24.6881 3
      vertex 20 23.6881 3
      vertex 30 24.6881 3
    endloop
  endfacet
  facet normal 0 0 1
    outer loop
      vertex 20 13.6881 6
      vertex 20 -1 6
      vertex 26 -1 6
    endloop
  endfacet
  facet normal 0 0 1
    outer loop
      vertex 26 13.6881 6
      vertex 20 13.6881 6
      vertex 26 -1 6
    endloop
  endfacet
  facet normal 0 0 1
    outer loop
      vertex 20 -1 3
      vertex 20 -11 3
      vertex 23 -11 3
    endloop
  endfacet
  facet normal 0 0 1
    outer loop
      vertex 23 -1 3
      vertex 20 -1 3
      vertex 23 -11 3
    endloop
  endfacet
  facet normal 0 0 1
    outer loop
      vertex 20 -11 14.8216
      vertex 20 -17 14.8216
      vertex 26 -17 14.8216
    endloop
  endfacet
  facet normal 0 0 1
    outer loop
      vertex 26 -11 14.8216
      vertex 20 -11 14.8216
      vertex 26 -17 14.8216
    endloop
  endfacet
  facet normal -1 0 0
    outer loop
      vertex 30 -11.0533 4.37706e-15
      vertex 30 -11.0533 6
      vertex 30 21.6881 3.67394e-16
    endloop
  endfacet
  facet normal -1 0 0
    outer loop
      vertex 30 21.6881 3
      vertex 30 -11.0533 6
      vertex 30 24.6881 6
    endloop
  endfacet
  facet normal -1 0 0
    outer loop
      vertex 30 21.6881 3.67394e-16
      vertex 30 -11.0533 6
      vertex 30 21.6881 3
    endloop
  endfacet
  facet normal -1 0 0
    outer loop
      vertex 30 21.6881 3
      vertex 30 24.6881 6
      vertex 30 24.6881 3
    endloop
  endfacet
  facet normal 0 -1 1.22465e-16
    outer loop
      vertex 30 -11.0533 6
      vertex 30 -11.0533 4.37706e-15
      vertex 36 -11.0533 4.37706e-15
    endloop
  endfacet
  facet normal 0 -1 1.22465e-16
    outer loop
      vertex 36 -11.0533 6
      vertex 30 -11.0533 6
      vertex 36 -11.0533 4.37706e-15
    endloop
  endfacet
  facet normal 1 0 0
    outer loop
      vertex 36 -11.0533 6
      vertex 36 -11.0533 4.37706e-15
      vertex 36 24.6881 0
    endloop
  endfacet
  facet normal 1 0 0
    outer loop
      vertex 36 24.6881 6
      vertex 36 -11.0533 6
      vertex 36 24.6881 0
    endloop
  endfacet
  facet normal 0 1.22465e-16 1
    outer loop
      vertex 30 24.6881 6
      vertex 30 -11.0533 6
      vertex 36 -11.0533 6
    endloop
  endfacet
  facet normal 0 1.22465e-16 1
    outer loop
      vertex 36 24.6881 6
      vertex 30 24.6881 6
      vertex 36 -11.0533 6
    endloop
  endfacet
  facet normal -1 0 0
    outer loop
      vertex 30 -21.0533 1.22465e-15
      vertex 30 -21.0533 3
      vertex 30 -20.0533 1.10218e-15
    endloop
  endfacet
  facet normal -1 0 0
    outer loop
      vertex 30 -20.0533 1.10218e-15
      vertex 30 -21.0533 3
      vertex 30 -11.0533 3
    endloop
  endfacet
  facet normal -1 0 0
    outer loop
      vertex 30 -20.0533 1.10218e-15
      vertex 30 -11.0533 3
      vertex 30 -11.0533 0
    endloop
  endfacet
  facet normal -1 -2.22045e-16 0
    outer loop
      vertex 30 -20.0533 0
      vertex 30 -23.0533 0
      vertex 30 -20.0533 1.10218e-15
    endloop
  endfacet
  facet normal -1 -2.22045e-16 0
    outer loop
      vertex 30 -21.0533 1.22465e-15
      vertex 30 -23.0533 0
      vertex 30 -23.0533 3
    endloop
  endfacet
  facet normal -1 -2.22045e-16 0
    outer loop
      vertex 30 -20.0533 1.10218e-15
      vertex 30 -23.0533 0
      vertex 30 -21.0533 1.22465e-15
    endloop
  endfacet
  facet normal -1 -2.22045e-16 0
    outer loop
      vertex 30 -21.0533 1.22465e-15
      vertex 30 -23.0533 3
      vertex 30 -21.0533 3
    endloop
  endfacet
  facet normal -2.22045e-16 1 0
    outer loop
      vertex 30 -20.0533 0
      vertex 30 -20.0533 1.10218e-15
      vertex 40 -20.0533 0
    endloop
  endfacet
  facet normal -2.22045e-16 1 0
    outer loop
      vertex 40 -20.0533 0
      vertex 30 -20.0533 1.10218e-15
      vertex 33 -20.0533 1.10218e-15
    endloop
  endfacet
  facet normal -2.22045e-16 1 0
    outer loop
      vertex 40 -20.0533 0
      vertex 33 -20.0533 1.10218e-15
      vertex 33 -20.0533 3
    endloop
  endfacet
  facet normal -2.22045e-16 1 0
    outer loop
      vertex 40 -20.0533 0
      vertex 33 -20.0533 3
      vertex 40 -20.0533 3
    endloop
  endfacet
  facet normal 0 -1.22465e-16 -1
    outer loop
      vertex 30 -20.0533 1.10218e-15
      vertex 30 -11.0533 0
      vertex 33 -20.0533 1.10218e-15
    endloop
  endfacet
  facet normal 0 -1.22465e-16 -1
    outer loop
      vertex 33 -20.0533 1.10218e-15
      vertex 30 -11.0533 0
      vertex 33 -11.0533 0
    endloop
  endfacet
  facet normal 0 1 -1.22465e-16
    outer loop
      vertex 30 -11.0533 0
      vertex 30 -11.0533 3
      vertex 33 -11.0533 0
    endloop
  endfacet
  facet normal 0 1 -1.22465e-16
    outer loop
      vertex 33 -11.0533 0
      vertex 30 -11.0533 3
      vertex 33 -11.0533 3
    endloop
  endfacet
  facet normal 0 1.22465e-16 1
    outer loop
      vertex 30 -11.0533 3
      vertex 30 -21.0533 3
      vertex 33 -21.0533 3
    endloop
  endfacet
  facet normal 0 1.22465e-16 1
    outer loop
      vertex 33 -11.0533 3
      vertex 30 -11.0533 3
      vertex 33 -21.0533 3
    endloop
  endfacet
  facet normal 1 0 0
    outer loop
      vertex 33 -11.0533 3
      vertex 33 -21.0533 3
      vertex 33 -20.0533 3
    endloop
  endfacet
  facet normal 1 0 0
    outer loop
      vertex 33 -20.0533 1.10218e-15
      vertex 33 -11.0533 0
      vertex 33 -20.0533 3
    endloop
  endfacet
  facet normal 1 0 0
    outer loop
      vertex 33 -11.0533 0
      vertex 33 -11.0533 3
      vertex 33 -20.0533 3
    endloop
  endfacet
  facet normal 0 0 1
    outer loop
      vertex 33 -21.0533 3
      vertex 30 -21.0533 3
      vertex 30 -23.0533 3
    endloop
  endfacet
  facet normal 0 0 1
    outer loop
      vertex 40 -20.0533 3
      vertex 33 -21.0533 3
      vertex 40 -23.0533 3
    endloop
  endfacet
  facet normal 0 0 1
    outer loop
      vertex 40 -23.0533 3
      vertex 33 -21.0533 3
      vertex 30 -23.0533 3
    endloop
  endfacet
  facet normal 0 0 1
    outer loop
      vertex 33 -20.0533 3
      vertex 33 -21.0533 3
      vertex 40 -20.0533 3
    endloop
  endfacet
  facet normal 2.22045e-16 -1 0
    outer loop
      vertex 30 -23.0533 3
      vertex 30 -23.0533 0
      vertex 40 -23.0533 0
    endloop
  endfacet
  facet normal 2.22045e-16 -1 0
    outer loop
      vertex 40 -23.0533 3
      vertex 30 -23.0533 3
      vertex 40 -23.0533 0
    endloop
  endfacet
  facet normal 0 0 -1
    outer loop
      vertex 30 -20.0533 0
      vertex 40 -20.0533 0
      vertex 30 -23.0533 0
    endloop
  endfacet
  facet normal 0 0 -1
    outer loop
      vertex 43 -7.05328 0
      vertex 40 -20.0533 0
      vertex 40 -7.05328 0
    endloop
  endfacet
  facet normal 0 0 -1
    outer loop
      vertex 43 -17.0533 0
      vertex 40 -20.0533 0
      vertex 43 -7.05328 0
    endloop
  endfacet
  facet normal 0 0 -1
    outer loop
      vertex 46 -23.0533 0
      vertex 40 -20.0533 0
      vertex 46 -17.0533 0
    endloop
  endfacet
  facet normal 0 0 -1
    outer loop
      vertex 40 -20.0533 0
      vertex 43 -17.0533 0
      vertex 46 -17.0533 0
    endloop
  endfacet
  facet normal 0 0 -1
    outer loop
      vertex 40 -23.0533 0
      vertex 40 -20.0533 0
      vertex 46 -23.0533 0
    endloop
  endfacet
  facet normal 0 0 -1
    outer loop
      vertex 30 -23.0533 0
      vertex 40 -20.0533 0
      vertex 40 -23.0533 0
    endloop
  endfacet
  facet normal -1 0 0
    outer loop
      vertex 40 -23.0533 3
      vertex 40 -23.0533 15.8337
      vertex 40 -17.0533 15.8337
    endloop
  endfacet
  facet normal -1 0 0
    outer loop
      vertex 40 -20.0533 3
      vertex 40 -17.0533 15.8337
      vertex 40 -17.0533 3
    endloop
  endfacet
  facet normal -1 0 0
    outer loop
      vertex 40 -20.0533 0
      vertex 40 -7.05328 3
      vertex 40 -7.05328 0
    endloop
  endfacet
  facet normal -1 0 0
    outer loop
      vertex 40 -23.0533 3
      vertex 40 -17.0533 15.8337
      vertex 40 -20.0533 3
    endloop
  endfacet
  facet normal -1 0 0
    outer loop
      vertex 40 -23.0533 0
      vertex 40 -23.0533 15.8337
      vertex 40 -23.0533 3
    endloop
  endfacet
  facet normal -1 0 0
    outer loop
      vertex 40 -17.0533 3
      vertex 40 -7.05328 3
      vertex 40 -20.0533 0
    endloop
  endfacet
  facet normal -1 0 0
    outer loop
      vertex 40 -20.0533 3
      vertex 40 -17.0533 3
      vertex 40 -20.0533 0
    endloop
  endfacet
  facet normal 0 -1 0
    outer loop
      vertex 40 -23.0533 15.8337
      vertex 40 -23.0533 0
      vertex 46 -23.0533 0
    endloop
  endfacet
  facet normal 0 -1 0
    outer loop
      vertex 46 -23.0533 15.8337
      vertex 40 -23.0533 15.8337
      vertex 46 -23.0533 0
    endloop
  endfacet
  facet normal 1 0 0
    outer loop
      vertex 46 -23.0533 15.8337
      vertex 46 -23.0533 0
      vertex 46 -17.0533 0
    endloop
  endfacet
  facet normal 1 0 0
    outer loop
      vertex 46 -17.0533 15.8337
      vertex 46 -23.0533 15.8337
      vertex 46 -17.0533 0
    endloop
  endfacet
  facet normal 0 1 0
    outer loop
      vertex 40 -17.0533 3
      vertex 40 -17.0533 15.8337
      vertex 43 -17.0533 3
    endloop
  endfacet
  facet normal 0 1 0
    outer loop
      vertex 43 -17.0533 3
      vertex 40 -17.0533 15.8337
      vertex 46 -17.0533 15.8337
    endloop
  endfacet
  facet normal 0 1 0
    outer loop
      vertex 43 -17.0533 3
      vertex 46 -17.0533 15.8337
      vertex 46 -17.0533 0
    endloop
  endfacet
  facet normal 0 1 0
    outer loop
      vertex 43 -17.0533 3
      vertex 46 -17.0533 0
      vertex 43 -17.0533 0
    endloop
  endfacet
  facet normal 1 0 0
    outer loop
      vertex 43 -17.0533 3
      vertex 43 -17.0533 0
      vertex 43 -7.05328 0
    endloop
  endfacet
  facet normal 1 0 0
    outer loop
      vertex 43 -7.05328 3
      vertex 43 -17.0533 3
      vertex 43 -7.05328 0
    endloop
  endfacet
  facet normal 0 1 0
    outer loop
      vertex 40 -7.05328 0
      vertex 40 -7.05328 3
      vertex 43 -7.05328 0
    endloop
  endfacet
  facet normal 0 1 0
    outer loop
      vertex 43 -7.05328 0
      vertex 40 -7.05328 3
      vertex 43 -7.05328 3
    endloop
  endfacet
  facet normal 0 0 1
    outer loop
      vertex 40 -7.05328 3
      vertex 40 -17.0533 3
      vertex 43 -17.0533 3
    endloop
  endfacet
  facet normal 0 0 1
    outer loop
      vertex 43 -7.05328 3
      vertex 40 -7.05328 3
      vertex 43 -17.0533 3
    endloop
  endfacet
  facet normal 0 0 1
    outer loop
      vertex 40 -17.0533 15.8337
      vertex 40 -23.0533 15.8337
      vertex 46 -23.0533 15.8337
    endloop
  endfacet
  facet normal 0 0 1
    outer loop
      vertex 46 -17.0533 15.8337
      vertex 40 -17.0533 15.8337
      vertex 46 -23.0533 15.8337
    endloop
  endfacet
  facet normal -1 0 0
    outer loop
      vertex 40 8.94672 3
      vertex 40 8.94672 0
      vertex 40 -1.05328 3
    endloop
  endfacet
  facet normal -1 0 0
    outer loop
      vertex 40 -7.05328 0
      vertex 40 -7.05328 13.2918
      vertex 40 -1.05328 3
    endloop
  endfacet
  facet normal -1 0 0
    outer loop
      vertex 40 -7.05328 0
      vertex 40 -1.05328 3
      vertex 40 8.94672 0
    endloop
  endfacet
  facet normal -1 0 0
    outer loop
      vertex 40 -1.05328 3
      vertex 40 -7.05328 13.2918
      vertex 40 -1.05328 13.2918
    endloop
  endfacet
  facet normal 0 -1 0
    outer loop
      vertex 40 -7.05328 13.2918
      vertex 40 -7.05328 0
      vertex 46 -7.05328 0
    endloop
  endfacet
  facet normal 0 -1 0
    outer loop
      vertex 46 -7.05328 13.2918
      vertex 40 -7.05328 13.2918
      vertex 46 -7.05328 0
    endloop
  endfacet
  facet normal 0 0 -1
    outer loop
      vertex 46 -1.05328 0
      vertex 46 -7.05328 0
      vertex 43 -1.05328 0
    endloop
  endfacet
  facet normal 0 0 -1
    outer loop
      vertex 40 -7.05328 0
      vertex 40 8.94672 0
      vertex 43 -1.05328 0
    endloop
  endfacet
  facet normal 0 0 -1
    outer loop
      vertex 40 -7.05328 0
      vertex 43 -1.05328 0
      vertex 46 -7.05328 0
    endloop
  endfacet
  facet normal 0 0 -1
    outer loop
      vertex 43 -1.05328 0
      vertex 40 8.94672 0
      vertex 43 8.94672 0
    endloop
  endfacet
  facet normal 0 1 0
    outer loop
      vertex 40 8.94672 0
      vertex 40 8.94672 3
      vertex 43 8.94672 0
    endloop
  endfacet
  facet normal 0 1 0
    outer loop
      vertex 43 8.94672 0
      vertex 40 8.94672 3
      vertex 43 8.94672 3
    endloop
  endfacet
  facet normal 0 0 1
    outer loop
      vertex 40 8.94672 3
      vertex 40 -1.05328 3
      vertex 43 -1.05328 3
    endloop
  endfacet
  facet normal 0 0 1
    outer loop
      vertex 43 8.94672 3
      vertex 40 8.94672 3
      vertex 43 -1.05328 3
    endloop
  endfacet
  facet normal 0 1 0
    outer loop
      vertex 40 -1.05328 3
      vertex 40 -1.05328 13.2918
      vertex 43 -1.05328 3
    endloop
  endfacet
  facet normal 0 1 0
    outer loop
      vertex 43 -1.05328 3
      vertex 40 -1.05328 13.2918
      vertex 46 -1.05328 13.2918
    endloop
  endfacet
  facet normal 0 1 0
    outer loop
      vertex 43 -1.05328 3
      vertex 46 -1.05328 13.2918
      vertex 46 -1.05328 0
    endloop
  endfacet
  facet normal 0 1 0
    outer loop
      vertex 43 -1.05328 3
      vertex 46 -1.05328 0
      vertex 43 -1.05328 0
    endloop
  endfacet
  facet normal 0 0 1
    outer loop
      vertex 40 -1.05328 13.2918
      vertex 40 -7.05328 13.2918
      vertex 46 -7.05328 13.2918
    endloop
  endfacet
  facet normal 0 0 1
    outer loop
      vertex 46 -1.05328 13.2918
      vertex 40 -1.05328 13.2918
      vertex 46 -7.05328 13.2918
    endloop
  endfacet
  facet normal 1 0 0
    outer loop
      vertex 46 -7.05328 13.2918
      vertex 46 -7.05328 0
      vertex 46 -1.05328 0
    endloop
  endfacet
  facet normal 1 0 0
    outer loop
      vertex 46 -1.05328 13.2918
      vertex 46 -7.05328 13.2918
      vertex 46 -1.05328 0
    endloop
  endfacet
  facet normal 1 0 0
    outer loop
      vertex 43 -1.05328 3
      vertex 43 -1.05328 0
      vertex 43 8.94672 0
    endloop
  endfacet
  facet normal 1 0 0
    outer loop
      vertex 43 8.94672 3
      vertex 43 -1.05328 3
      vertex 43 8.94672 0
    endloop
  endfacet
  facet normal -1 0 0
    outer loop
      vertex 40 23.4239 3
      vertex 40 23.4239 0
      vertex 40 13.4239 3
    endloop
  endfacet
  facet normal -1 0 0
    outer loop
      vertex 40 8.94672 0
      vertex 40 8.94672 6
      vertex 40 13.4239 3
    endloop
  endfacet
  facet normal -1 0 0
    outer loop
      vertex 40 8.94672 0
      vertex 40 13.4239 3
      vertex 40 23.4239 0
    endloop
  endfacet
  facet normal -1 0 0
    outer loop
      vertex 40 13.4239 3
      vertex 40 8.94672 6
      vertex 40 13.4239 6
    endloop
  endfacet
  facet normal 0 -1 0
    outer loop
      vertex 40 8.94672 6
      vertex 40 8.94672 0
      vertex 46 8.94672 0
    endloop
  endfacet
  facet normal 0 -1 0
    outer loop
      vertex 46 8.94672 6
      vertex 40 8.94672 6
      vertex 46 8.94672 0
    endloop
  endfacet
  facet normal 0 0 -1
    outer loop
      vertex 46 13.4239 0
      vertex 46 8.94672 0
      vertex 43 13.4239 0
    endloop
  endfacet
  facet normal 0 0 -1
    outer loop
      vertex 43 21.4239 0
      vertex 40 24.4239 0
      vertex 50 24.4239 0
    endloop
  endfacet
  facet normal 0 0 -1
    outer loop
      vertex 43 13.4239 0
      vertex 40 24.4239 0
      vertex 43 21.4239 0
    endloop
  endfacet
  facet normal 0 0 -1
    outer loop
      vertex 40 8.94672 0
      vertex 40 23.4239 0
      vertex 43 13.4239 0
    endloop
  endfacet
  facet normal 0 0 -1
    outer loop
      vertex 40 8.94672 0
      vertex 43 13.4239 0
      vertex 46 8.94672 0
    endloop
  endfacet
  facet normal 0 0 -1
    outer loop
      vertex 43 13.4239 0
      vertex 40 23.4239 0
      vertex 40 24.4239 0
    endloop
  endfacet
  facet normal 0 0 -1
    outer loop
      vertex 43 21.4239 0
      vertex 50 24.4239 0
      vertex 50 21.4239 0
    endloop
  endfacet
  facet normal 0 0 1
    outer loop
      vertex 40 23.4239 3
      vertex 40 13.4239 3
      vertex 43 13.4239 3
    endloop
  endfacet
  facet normal 0 0 1
    outer loop
      vertex 50 21.4239 3
      vertex 40 23.4239 3
      vertex 43 21.4239 3
    endloop
  endfacet
  facet normal 0 0 1
    outer loop
      vertex 43 21.4239 3
      vertex 40 23.4239 3
      vertex 43 13.4239 3
    endloop
  endfacet
  facet normal 0 0 1
    outer loop
      vertex 50 24.4239 3
      vertex 40 23.4239 3
      vertex 50 21.4239 3
    endloop
  endfacet
  facet normal 0 0 1
    outer loop
      vertex 40 24.4239 3
      vertex 40 23.4239 3
      vertex 50 24.4239 3
    endloop
  endfacet
  facet normal 0 1 0
    outer loop
      vertex 40 13.4239 3
      vertex 40 13.4239 6
      vertex 43 13.4239 3
    endloop
  endfacet
  facet normal 0 1 0
    outer loop
      vertex 43 13.4239 3
      vertex 40 13.4239 6
      vertex 46 13.4239 6
    endloop
  endfacet
  facet normal 0 1 0
    outer loop
      vertex 43 13.4239 3
      vertex 46 13.4239 6
      vertex 46 13.4239 0
    endloop
  endfacet
  facet normal 0 1 0
    outer loop
      vertex 43 13.4239 3
      vertex 46 13.4239 0
      vertex 43 13.4239 0
    endloop
  endfacet
  facet normal 0 0 1
    outer loop
      vertex 40 13.4239 6
      vertex 40 8.94672 6
      vertex 46 8.94672 6
    endloop
  endfacet
  facet normal 0 0 1
    outer loop
      vertex 46 13.4239 6
      vertex 40 13.4239 6
      vertex 46 8.94672 6
    endloop
  endfacet
  facet normal 1 0 0
    outer loop
      vertex 46 8.94672 6
      vertex 46 8.94672 0
      vertex 46 13.4239 0
    endloop
  endfacet
  facet normal 1 0 0
    outer loop
      vertex 46 13.4239 6
      vertex 46 8.94672 6
      vertex 46 13.4239 0
    endloop
  endfacet
  facet normal 1 0 0
    outer loop
      vertex 43 13.4239 3
      vertex 43 13.4239 0
      vertex 43 21.4239 0
    endloop
  endfacet
  facet normal 1 0 0
    outer loop
      vertex 43 21.4239 3
      vertex 43 13.4239 3
      vertex 43 21.4239 0
    endloop
  endfacet
  facet normal 2.22045e-16 -1 0
    outer loop
      vertex 43 21.4239 3
      vertex 43 21.4239 0
      vertex 50 21.4239 0
    endloop
  endfacet
  facet normal 2.22045e-16 -1 0
    outer loop
      vertex 50 21.4239 3.67394e-16
      vertex 43 21.4239 3
      vertex 50 21.4239 0
    endloop
  endfacet
  facet normal 2.22045e-16 -1 0
    outer loop
      vertex 50 21.4239 3.67394e-16
      vertex 50 21.4239 3
      vertex 43 21.4239 3
    endloop
  endfacet
  facet normal 1 2.22045e-16 0
    outer loop
      vertex 50 21.4239 0
      vertex 50 24.4239 0
      vertex 50 21.4239 3.67394e-16
    endloop
  endfacet
  facet normal 0 -1.22465e-16 -1
    outer loop
      vertex 50 5.5163 2.31552e-15
      vertex 50 21.4239 3.67394e-16
      vertex 56 5.5163 2.31552e-15
    endloop
  endfacet
  facet normal 0 -1.22465e-16 -1
    outer loop
      vertex 56 5.5163 2.31552e-15
      vertex 50 21.4239 3.67394e-16
      vertex 50 24.4239 0
    endloop
  endfacet
  facet normal 0 -1.22465e-16 -1
    outer loop
      vertex 56 5.5163 2.31552e-15
      vertex 50 24.4239 0
      vertex 56 24.4239 0
    endloop
  endfacet
  facet normal 0 1 -1.22465e-16
    outer loop
      vertex 50 24.4239 3
      vertex 50 24.4239 6
      vertex 56 24.4239 6
    endloop
  endfacet
  facet normal 0 1 -1.22465e-16
    outer loop
      vertex 50 24.4239 3
      vertex 56 24.4239 6
      vertex 56 24.4239 0
    endloop
  endfacet
  facet normal 0 1 -1.22465e-16
    outer loop
      vertex 50 24.4239 3
      vertex 56 24.4239 0
      vertex 50 24.4239 0
    endloop
  endfacet
  facet normal -2.22045e-16 1 0
    outer loop
      vertex 40 24.4239 0
      vertex 40 24.4239 3
      vertex 50 24.4239 0
    endloop
  endfacet
  facet normal -2.22045e-16 1 0
    outer loop
      vertex 50 24.4239 0
      vertex 40 24.4239 3
      vertex 50 24.4239 3
    endloop
  endfacet
  facet normal -1 -2.22045e-16 0
    outer loop
      vertex 40 24.4239 0
      vertex 40 23.4239 0
      vertex 40 24.4239 3
    endloop
  endfacet
  facet normal -1 -2.22045e-16 0
    outer loop
      vertex 40 24.4239 3
      vertex 40 23.4239 0
      vertex 40 23.4239 3
    endloop
  endfacet
  facet normal -1 0 0
    outer loop
      vertex 50 5.5163 2.31552e-15
      vertex 50 5.5163 6
      vertex 50 21.4239 3.67394e-16
    endloop
  endfacet
  facet normal -1 0 0
    outer loop
      vertex 50 21.4239 3
      vertex 50 5.5163 6
      vertex 50 24.4239 6
    endloop
  endfacet
  facet normal -1 0 0
    outer loop
      vertex 50 21.4239 3.67394e-16
      vertex 50 5.5163 6
      vertex 50 21.4239 3
    endloop
  endfacet
  facet normal -1 0 0
    outer loop
      vertex 50 21.4239 3
      vertex 50 24.4239 6
      vertex 50 24.4239 3
    endloop
  endfacet
  facet normal 0 -1 1.22465e-16
    outer loop
      vertex 50 5.5163 6
      vertex 50 5.5163 2.31552e-15
      vertex 56 5.5163 2.31552e-15
    endloop
  endfacet
  facet normal 0 -1 1.22465e-16
    outer loop
      vertex 56 5.5163 6
      vertex 50 5.5163 6
      vertex 56 5.5163 2.31552e-15
    endloop
  endfacet
  facet normal 1 0 0
    outer loop
      vertex 56 5.5163 6
      vertex 56 5.5163 2.31552e-15
      vertex 56 24.4239 0
    endloop
  endfacet
  facet normal 1 0 0
    outer loop
      vertex 56 24.4239 6
      vertex 56 5.5163 6
      vertex 56 24.4239 0
    endloop
  endfacet
  facet normal 0 1.22465e-16 1
    outer loop
      vertex 50 24.4239 6
      vertex 50 5.5163 6
      vertex 56 5.5163 6
    endloop
  endfacet
  facet normal 0 1.22465e-16 1
    outer loop
      vertex 56 24.4239 6
      vertex 50 24.4239 6
      vertex 56 5.5163 6
    endloop
  endfacet
endsolid OpenSCAD_Model
